<svg width="32" height="29" viewBox="0 0 32 29" fill="none" xmlns="http://www.w3.org/2000/svg">
<path fill-rule="evenodd" clip-rule="evenodd" d="M16.202 0.841797C16.5743 0.853293 16.5681 0.851545 16.9424 0.867343C18.9292 0.951378 21.5124 1.73512 23.4487 3.39013C23.6462 3.55894 23.5271 3.62947 23.3285 3.84419C20.6511 6.73748 20.6756 6.7565 20.4291 6.99435C20.2642 7.15362 20.1192 6.84329 18.7463 6.08079C16.3296 4.73852 13.3041 5.34499 12.941 6.41102C12.1507 8.73078 16.8501 8.20587 19.5408 9.86061C19.6929 9.95406 19.5969 10.0352 18.5513 11.0334C16.003 13.4664 16.0166 13.5955 15.7998 13.5212C12.6936 12.4563 11.6857 12.6852 9.69977 11.4112C6.87721 9.60051 6.89664 4.9878 9.64027 2.80055C12.032 0.893831 14.8304 0.856923 16.202 0.841797Z" fill="#FEFEFE"/>
<path fill-rule="evenodd" clip-rule="evenodd" d="M8.47118 20.921L8.53054 20.9026C8.88302 20.9803 8.88718 20.9489 13.0421 20.9478C13.1806 20.9478 13.5919 20.8717 13.3385 21.1406C13.1535 21.3369 8.26156 26.9909 7.3359 28.0529C6.9638 28.4797 6.8651 28.6712 6.58846 28.6722C5.24391 28.6722 3.89928 28.6723 2.55466 28.6723C0.044841 28.6723 0.0453116 28.6755 0 28.6519C0.00914299 28.6308 0.000336141 28.6046 0.00947913 28.5835C0.026555 28.5442 2.4325 26.3972 4.3729 24.6204C4.69862 24.3221 7.63816 21.6304 8.47118 20.921Z" fill="#EB1E28"/>
<path fill-rule="evenodd" clip-rule="evenodd" d="M14.0519 20.9422C13.8405 20.9528 13.6017 20.997 13.6179 20.8473C13.6192 20.8361 21.1298 12.4094 21.4069 12.0722C21.5699 11.8737 21.6851 12.2098 21.7972 12.5787C22.6579 15.4111 21.6954 20.4578 14.0519 20.9422Z" fill="#FEFEFE"/>
<path fill-rule="evenodd" clip-rule="evenodd" d="M31.7988 0C31.8232 0.0106892 31.8889 -0.0346896 31.9925 0.0849087C32.0412 0.141178 31.9857 0.152876 27.4591 5.28303C27.1572 5.62529 24.3353 8.81115 24.332 8.81458C24.124 9.03576 24.0872 9.16766 23.8658 9.16463C23.6339 9.16141 21.2913 9.12914 20.9671 9.10635C20.711 9.0884 21.1971 8.71454 21.69 8.25403C22.1736 7.80213 24.7934 5.35409 27.7117 2.58121C30.3315 0.0919005 30.3454 0.0523705 30.656 0.0495469C30.6924 0.0492108 31.7261 0.047799 31.7307 0.0471267C31.758 0.0432275 31.7715 0.00389921 31.7988 0Z" fill="#EA1E28"/>
<path fill-rule="evenodd" clip-rule="evenodd" d="M8.47117 20.921C7.27324 20.583 4.83133 18.9219 4.83422 18.701C4.83583 18.5751 7.99984 15.2146 8.00387 15.2132C8.25786 15.1247 9.21801 16.3687 11.0947 17.0132C11.4285 17.1278 12.1836 17.1474 12.1652 17.2885C12.1598 17.33 8.66136 20.6965 8.53054 20.9026L8.47117 20.921Z" fill="#FEFEFE"/>
</svg>
