<svg width="27" height="27" viewBox="0 0 27 27" fill="none" xmlns="http://www.w3.org/2000/svg">
<path d="M23.625 14.6251H21.375C21.0563 14.6251 20.7893 14.5171 20.574 14.301C20.3588 14.085 20.2507 13.818 20.25 13.5C20.2493 13.182 20.3573 12.915 20.574 12.699C20.7908 12.483 21.0577 12.375 21.375 12.375H23.625C23.9437 12.375 24.2111 12.483 24.4271 12.699C24.6431 12.915 24.7507 13.182 24.75 13.5C24.7493 13.818 24.6412 14.0854 24.426 14.3022C24.2107 14.5189 23.9437 14.6266 23.625 14.6251ZM18.675 18.9C18.8625 18.6375 19.1062 18.4876 19.4062 18.4501C19.7063 18.4126 19.9875 18.4876 20.25 18.6751L22.05 20.025C22.3125 20.2125 22.4625 20.4563 22.5 20.7563C22.5375 21.0563 22.4625 21.3376 22.275 21.6001C22.0875 21.8626 21.8437 22.0126 21.5437 22.0501C21.2437 22.0876 20.9625 22.0126 20.7 21.8251L18.9 20.4751C18.6375 20.2876 18.4875 20.0438 18.45 19.7438C18.4125 19.4438 18.4875 19.1625 18.675 18.9ZM22.05 6.97505L20.25 8.32505C19.9875 8.51255 19.7063 8.58755 19.4062 8.55005C19.1062 8.51255 18.8625 8.36255 18.675 8.10005C18.4875 7.83755 18.4125 7.5563 18.45 7.2563C18.4875 6.9563 18.6375 6.71255 18.9 6.52505L20.7 5.17505C20.9625 4.98755 21.2437 4.91255 21.5437 4.95005C21.8437 4.98755 22.0875 5.13755 22.275 5.40005C22.4625 5.66255 22.5375 5.9438 22.5 6.2438C22.4625 6.5438 22.3125 6.78755 22.05 6.97505ZM5.625 16.8751H4.5C3.88125 16.8751 3.35175 16.6549 2.9115 16.2147C2.47125 15.7744 2.25075 15.2446 2.25 14.6251V12.375C2.25 11.7563 2.4705 11.2268 2.9115 10.7865C3.3525 10.3463 3.882 10.1258 4.5 10.125H9L12.9094 7.76255C13.2844 7.53755 13.6642 7.53755 14.049 7.76255C14.4337 7.98755 14.6257 8.31567 14.625 8.74692V18.2532C14.625 18.6844 14.4326 19.0126 14.0479 19.2376C13.6631 19.4626 13.2836 19.4626 12.9094 19.2376L9 16.8751H7.875V20.2501C7.875 20.5688 7.767 20.8362 7.551 21.0522C7.335 21.2682 7.068 21.3758 6.75 21.3751C6.432 21.3743 6.165 21.2663 5.949 21.0511C5.733 20.8358 5.625 20.5688 5.625 20.2501V16.8751ZM15.75 17.2688V9.7313C16.2562 10.1813 16.6643 10.7299 16.974 11.3772C17.2838 12.0244 17.4382 12.732 17.4375 13.5C17.4368 14.268 17.2819 14.976 16.9729 15.624C16.6639 16.272 16.2562 16.8203 15.75 17.2688Z" fill="#4660FF"/>
</svg>
