<?xml version="1.0" encoding="UTF-8" standalone="no"?>
<!DOCTYPE svg PUBLIC "-//W3C//DTD SVG 1.1//EN" "http://www.w3.org/Graphics/SVG/1.1/DTD/svg11.dtd">
<svg width="100%" height="100%" viewBox="0 0 1279 567" version="1.1" xmlns="http://www.w3.org/2000/svg" xmlns:xlink="http://www.w3.org/1999/xlink" xml:space="preserve" xmlns:serif="http://www.serif.com/" style="fill-rule:evenodd;clip-rule:evenodd;stroke-linejoin:round;stroke-miterlimit:2;">
    <g transform="matrix(1,0,0,1,-517.39209,-2397.806809)">
        <g transform="matrix(1,0,0,1,-542,-621)">
            <g transform="matrix(1.254883,0,0,1.254883,1055,3016)">
                <path d="M909.493,2.443C910.179,2.374 910.865,2.306 911.551,2.237C912.132,8.306 896.616,95.389 895.177,103.465C893.917,110.534 903.127,98.786 928.526,95.691C1014.913,85.161 1020.412,146.348 1021.546,150.496C1022.573,163.487 1022.179,163.447 1021.475,176.498C1016.884,196.346 999.46,313.518 997.57,314.586C996.27,315.321 996.142,315.161 929.498,315.158C928.118,315.158 924.171,315.887 924.713,312.524C934.654,250.894 935.701,251.139 945.572,189.512C951.51,152.438 907.91,152.525 884.9,171.902C882.481,173.939 876.437,218.117 870.485,252.497C860.005,313.034 861.058,315.06 857.487,315.154C856.707,315.175 788.568,315.159 788.531,315.156C784.07,314.841 786.94,311.853 805.099,203.43C835.033,24.696 833.874,23.69 836.365,22.298C839.874,20.337 895.192,7.985 909.493,2.443Z" style="fill:white;fill-opacity:1;"/>
            </g>
            <g transform="matrix(1.254883,0,0,1.254883,1055,3016)">
                <path d="M682.5,94.677C682.926,94.682 785.162,87.906 773.103,186.446C772.464,191.672 757.448,281.05 757.365,281.477C753.011,304.04 753.36,314.94 749.468,315.13C748.465,315.179 701.039,315.177 700.515,315.145C696.696,314.918 698.057,313.069 693.676,297.428C692.812,294.342 691.64,296.079 689.128,298.004C647.889,329.608 568.722,318.168 561.691,263.472C553.697,201.276 606.342,174.572 659.498,177.541C684.897,178.96 692.167,184.085 699.457,186.646C704.34,188.361 703.195,168.799 697.119,163.89C664.384,137.446 604.627,167.145 600.481,166.939C592.047,166.521 601.205,153.381 605.063,146.25C628.941,102.11 628.737,101.143 632.488,100.425C659.096,95.33 678.475,94.789 682.5,94.677ZM634.933,249.431C641.802,274.806 689.323,261.481 690.962,251.602C694.085,232.779 694.07,232.486 693.175,231.807C680.036,221.837 632.42,215.563 634.933,249.431Z" style="fill:rgb(254,254,254);"/>
            </g>
            <g transform="matrix(1.254883,0,0,1.254883,1055,3016)">
                <path d="M435.778,163.437C436.794,168.518 448.377,224.372 448.529,224.469C450.031,225.431 449.813,223.782 465.113,192.313C474.661,172.674 508.394,101.023 509.412,100.395C511.636,99.024 538.711,99.973 587.492,99.653C591.787,99.624 587.958,104.129 582.087,115.278C577.2,124.56 576.61,124.19 519.087,230.274C465.775,328.594 458.166,338.059 451.427,346.441C430.834,372.056 406.973,394.83 347.527,391.128C336.642,390.45 311.888,385.115 311.622,381.49C311.561,380.649 328.588,325.662 329.783,324.855C334.809,321.462 367.999,345.661 397.29,310.334C404.855,301.211 401.166,299.972 398.759,288.445C371.843,159.545 370.079,157.896 371.868,155.773C394.698,128.672 396.309,130.186 419.049,103.086C420.942,100.831 422.286,99.456 422.879,102.357C432.275,148.305 434.651,158.572 435.778,163.437Z" style="fill:rgb(254,254,254);"/>
            </g>
            <g transform="matrix(1.254883,0,0,1.254883,1055,3016)">
                <path d="M244.501,15.845C250.039,16.016 249.947,15.99 255.515,16.225C285.068,17.475 323.493,29.133 352.295,53.751C355.232,56.262 353.461,57.311 350.506,60.505C310.681,103.542 311.045,103.825 307.379,107.363C304.925,109.732 302.769,105.116 282.348,93.774C246.4,73.808 201.396,82.829 195.994,98.686C184.239,133.192 254.141,125.384 294.165,149.998C296.427,151.388 294.999,152.595 279.446,167.443C241.541,203.634 241.744,205.554 238.518,204.448C192.315,188.609 177.322,192.013 147.782,173.063C105.797,146.129 106.086,77.516 146.897,44.981C182.474,16.619 224.099,16.07 244.501,15.845Z" style="fill:rgb(254,254,254);"/>
            </g>
            <g transform="matrix(1.254883,0,0,1.254883,1055,3016)">
                <path d="M129.507,314.522L130.39,314.248C135.633,315.404 135.695,314.937 197.498,314.921C199.558,314.921 205.677,313.789 201.908,317.789C199.156,320.708 126.389,404.81 112.62,420.607C107.085,426.956 105.617,429.805 101.502,429.819C81.502,429.82 61.501,429.821 41.5,429.821C4.167,429.821 4.174,429.869 3.5,429.518C3.636,429.204 3.505,428.814 3.641,428.5C3.895,427.915 39.683,395.979 68.546,369.549C73.391,365.113 117.116,325.074 129.507,314.522Z" style="fill:rgb(235,30,40);"/>
            </g>
            <g transform="matrix(1.254883,0,0,1.254883,1055,3016)">
                <path d="M212.519,314.837C209.375,314.994 205.822,315.652 206.064,313.426C206.083,313.258 317.801,187.914 321.923,182.897C324.348,179.945 326.061,184.944 327.728,190.431C340.532,232.563 326.215,307.631 212.519,314.837Z" style="fill:rgb(254,254,254);"/>
            </g>
            <g transform="matrix(1.254883,0,0,1.254883,1055,3016)">
                <path d="M692.492,453.628C684.357,449.161 676.258,447.607 675.4,444.537C674.558,441.529 680.146,434.48 680.746,433.723C682.667,431.3 683.576,435.851 696.61,439.07C731.88,447.778 731.408,414.328 726.765,417.927C724.813,419.441 712.282,429.156 696.552,424.291C656.519,411.911 668.117,364.491 697.518,359.596C719.114,356.001 727.838,367.185 728.529,367.142C729.561,367.079 729.449,362.877 729.439,362.499C729.345,358.934 732.101,359.506 742.5,359.454C745.404,359.439 744.87,361.101 744.87,391.5C744.87,435.596 746.944,440.698 721.511,453.615C720.356,453.642 713.625,454.187 692.492,453.628ZM728.895,391.49C728.684,389.339 727.153,373.744 709.49,372.679C682.08,371.025 679.28,409.353 706.5,411.495C727.295,413.132 728.718,393.886 728.895,391.49Z" style="fill:rgb(233,30,40);"/>
            </g>
            <g transform="matrix(1.254883,0,0,1.254883,1055,3016)">
                <path d="M476.5,3.325C476.863,3.484 477.84,2.809 479.382,4.588C480.106,5.425 479.281,5.599 411.949,81.909C407.457,87 365.482,134.389 365.434,134.44C362.339,137.73 361.792,139.692 358.498,139.647C355.049,139.599 320.203,139.119 315.381,138.78C311.571,138.513 318.803,132.952 326.134,126.102C333.327,119.38 372.297,82.966 415.706,41.72C454.675,4.692 454.881,4.104 459.502,4.062C460.043,4.057 475.419,4.036 475.487,4.026C475.894,3.968 476.094,3.383 476.5,3.325Z" style="fill:rgb(234,30,40);"/>
            </g>
            <g transform="matrix(1.254883,0,0,1.254883,1055,3016)">
                <path d="M524.851,379.632C534.018,357.496 557.356,357.646 565.434,359.787C575.736,362.517 577.027,367.93 578.959,365.908C579.541,365.299 578.833,335.973 579.288,334.433C579.985,332.079 594.202,331.907 595.259,334.554C595.542,335.264 595.418,418.222 595.407,425.498C595.401,429.558 588.28,428.4 582.504,428.345C578.423,428.306 579.963,426.387 579.86,422.385C579.776,419.12 576.151,423.532 573.306,425.174C548.801,439.317 511.926,417.102 524.851,379.632ZM571.406,376.626C552.018,364.955 540.715,381.216 539.504,387.501C532.788,422.351 577.709,423.139 579.231,396.482C580.021,382.638 573.358,378.62 571.406,376.626Z" style="fill:rgb(232,30,40);"/>
            </g>
            <g transform="matrix(1.254883,0,0,1.254883,1055,3016)">
                <path d="M129.507,314.522C111.688,309.494 75.365,284.786 75.408,281.5C75.432,279.628 122.496,229.641 122.556,229.62C126.334,228.304 140.616,246.808 168.531,256.394C173.496,258.099 184.728,258.39 184.455,260.489C184.375,261.107 132.336,311.183 130.39,314.248L129.507,314.522Z" style="fill:rgb(254,254,254);"/>
            </g>
            <g transform="matrix(1.254883,0,0,1.254883,1055,3016)">
                <path d="M894.591,423.4C893.613,422.625 887.875,418.076 887.518,409.499C886.413,382.942 925.281,388.559 931.478,388.185C936.414,387.887 933.196,372.737 918.506,372.342C902.172,371.903 896.808,380.85 894.826,377.293C890.08,368.776 890.186,368.303 890.374,367.46C891.424,362.751 949.252,341.139 950.093,389.503C950.739,426.625 950.607,428.29 947.493,428.359C935.365,428.629 935.395,427.832 935.309,427.675C934.713,426.578 935.243,419.325 932.914,421.977C924.325,431.756 904.992,431.678 894.591,423.4ZM915.485,399.047C914.157,399.177 899.194,400.646 904.431,411.533C910.306,423.744 938.316,415.424 933.542,400.486C932.832,398.262 925.504,398.893 915.485,399.047Z" style="fill:rgb(231,30,40);"/>
            </g>
            <g transform="matrix(1.254883,0,0,1.254883,1055,3016)">
                <path d="M863.031,366.5C863.031,371.311 863.466,373.313 859.497,373.318C850.497,373.329 844.756,372.343 844.719,375.513C844.313,410.46 845.291,411.401 847.487,413.515C853.565,419.365 862.53,411.456 864.25,415.611C864.506,416.23 868.06,423.755 866.402,425.394C863.491,428.27 828.736,439.173 828.444,404.5C828.425,402.26 828.453,402.277 828.475,376.5C828.48,369.609 817.221,377.292 816.988,369.506C816.711,360.257 818.128,360.22 819.468,360.19C820.244,360.173 828.374,361.422 828.443,357.497C828.518,353.255 827.483,344.644 830.508,344.55C842.757,344.168 844.472,344.817 844.674,346.47C845.188,350.676 842.923,360.018 847.529,360.127C857.149,360.356 862.818,358.985 862.961,362.451C863.017,363.8 862.976,365.151 863.031,366.5Z" style="fill:rgb(232,30,40);"/>
            </g>
            <g transform="matrix(1.254883,0,0,1.254883,1055,3016)">
                <path d="M982.162,393.5C982.162,335.565 982.161,335.577 982.168,335.48C982.467,331.032 997.53,332.406 998.104,334.576C998.953,337.779 998.285,417.308 998.225,424.502C998.185,429.297 995.015,428.568 984.509,428.36C981.671,428.304 982.162,426.727 982.162,393.5Z" style="fill:rgb(232,30,40);"/>
            </g>
            <g transform="matrix(1.254883,0,0,1.254883,1055,3016)">
                <path d="M644.177,365.497C644.134,426.761 644.53,427.843 642.448,428.277C641.854,428.401 629.56,428.538 628.75,428.024C627.606,427.296 627.819,426.921 627.748,369.503C627.743,365.484 626.82,359.545 630.5,359.5C639.499,359.388 644.084,358.964 644.163,361.543C644.203,362.86 644.137,364.179 644.177,365.497Z" style="fill:rgb(228,31,40);"/>
            </g>
            <g transform="matrix(1.254883,0,0,1.254883,1055,3016)">
                <path d="M786.5,428.376C785.805,428.37 778.399,428.304 777.885,427.291C777.553,426.639 777.024,361.51 778.169,360.18C778.865,359.371 779.047,359.332 791.498,359.529C794.243,359.572 793.801,361.144 793.801,401.5C793.801,413.034 793.98,412.964 793.829,424.5C793.763,429.581 791.603,428.23 786.5,428.376Z" style="fill:rgb(233,31,40);"/>
            </g>
            <g transform="matrix(1.254883,0,0,1.254883,1055,3016)">
                <path d="M785.498,348.355C766.137,346.579 777.774,322.017 792.195,330.956C796.014,333.323 800.655,347.15 785.498,348.355Z" style="fill:rgb(232,30,40);"/>
            </g>
            <g transform="matrix(1.254883,0,0,1.254883,1055,3016)">
                <path d="M635.502,348.338C620.968,346.283 625.765,333.542 629.819,330.962C643.858,322.026 656.323,346.692 635.502,348.338Z" style="fill:rgb(231,30,40);"/>
            </g>
            <g transform="matrix(1.254883,0,0,1.254883,1055,3016)">
                <path d="M1021.428,177.495C1021.671,179.163 1021.913,180.831 1022.155,182.499C1021.395,180.065 1021.518,180.105 1021.428,177.495Z" style="fill:rgb(8,18,23);fill-opacity:0.65;"/>
            </g>
            <g transform="matrix(1.254883,0,0,1.254883,1055,3016)">
                <path d="M1021.812,145.482C1021.956,147.59 1021.9,147.509 1021.478,149.502C1021.59,148.162 1021.701,146.822 1021.812,145.482Z" style="fill:rgb(8,17,24);fill-opacity:0.68;"/>
            </g>
        </g>
    </g>
</svg>
