<svg width="32" height="32" viewBox="0 0 32 32" fill="none" xmlns="http://www.w3.org/2000/svg">
<path d="M28 17.3332H25.3333C24.9556 17.3332 24.6391 17.2052 24.384 16.9492C24.1289 16.6932 24.0009 16.3768 24 15.9999C23.9991 15.623 24.1271 15.3066 24.384 15.0506C24.6409 14.7946 24.9573 14.6666 25.3333 14.6666H28C28.3778 14.6666 28.6947 14.7946 28.9507 15.0506C29.2067 15.3066 29.3342 15.623 29.3333 15.9999C29.3324 16.3768 29.2044 16.6937 28.9493 16.9506C28.6942 17.2075 28.3778 17.335 28 17.3332ZM22.1333 22.3999C22.3556 22.0888 22.6444 21.911 23 21.8666C23.3556 21.8221 23.6889 21.911 24 22.1332L26.1333 23.7332C26.4444 23.9555 26.6222 24.2444 26.6667 24.5999C26.7111 24.9555 26.6222 25.2888 26.4 25.5999C26.1778 25.911 25.8889 26.0888 25.5333 26.1332C25.1778 26.1777 24.8444 26.0888 24.5333 25.8666L22.4 24.2666C22.0889 24.0444 21.9111 23.7555 21.8667 23.3999C21.8222 23.0444 21.9111 22.711 22.1333 22.3999ZM26.1333 8.26658L24 9.86658C23.6889 10.0888 23.3556 10.1777 23 10.1332C22.6444 10.0888 22.3556 9.91102 22.1333 9.59991C21.9111 9.2888 21.8222 8.95547 21.8667 8.59991C21.9111 8.24436 22.0889 7.95547 22.4 7.73325L24.5333 6.13325C24.8444 5.91102 25.1778 5.82214 25.5333 5.86658C25.8889 5.91102 26.1778 6.0888 26.4 6.39991C26.6222 6.71102 26.7111 7.04436 26.6667 7.39991C26.6222 7.75547 26.4444 8.04436 26.1333 8.26658ZM6.66666 19.9999H5.33333C4.6 19.9999 3.97244 19.739 3.45066 19.2172C2.92889 18.6955 2.66755 18.0675 2.66666 17.3332V14.6666C2.66666 13.9332 2.928 13.3057 3.45066 12.7839C3.97333 12.2621 4.60089 12.0008 5.33333 11.9999H10.6667L15.3 9.19991C15.7444 8.93325 16.1947 8.93325 16.6507 9.19991C17.1067 9.46658 17.3342 9.85547 17.3333 10.3666V21.6332C17.3333 22.1444 17.1053 22.5332 16.6493 22.7999C16.1933 23.0666 15.7436 23.0666 15.3 22.7999L10.6667 19.9999H9.33333V23.9999C9.33333 24.3777 9.20533 24.6946 8.94933 24.9506C8.69333 25.2066 8.37689 25.3341 8 25.3332C7.62311 25.3324 7.30666 25.2044 7.05066 24.9492C6.79466 24.6941 6.66666 24.3777 6.66666 23.9999V19.9999ZM18.6667 20.4666V11.5332C19.2667 12.0666 19.7502 12.7168 20.1173 13.4839C20.4844 14.251 20.6676 15.0897 20.6667 15.9999C20.6658 16.9101 20.4822 17.7492 20.116 18.5172C19.7498 19.2852 19.2667 19.935 18.6667 20.4666Z" fill="#4660FF"/>
</svg>
