<svg width="130" height="130" viewBox="0 0 130 130" fill="none" xmlns="http://www.w3.org/2000/svg">
<g filter="url(#filter0_d_45_135)">
<rect x="4" width="122" height="122" rx="4" fill="#0F1828"/>
<path fill-rule="evenodd" clip-rule="evenodd" d="M66.1123 20.5518C67.2408 20.5866 67.2221 20.5813 68.3567 20.6292C74.3792 20.8839 82.2096 23.2596 88.079 28.2764C88.6775 28.7881 88.3166 29.0019 87.7144 29.6528C79.5987 38.423 79.6729 38.4807 78.9258 39.2017C78.4257 39.6845 77.9864 38.7438 73.8249 36.4325C66.4992 32.3637 57.3281 34.202 56.2273 37.4335C53.8318 44.4652 68.0767 42.8741 76.233 47.89C76.694 48.1733 76.403 48.4193 73.2335 51.4451C65.5091 58.8202 65.5504 59.2115 64.893 58.9861C55.4776 55.7584 52.4222 56.452 46.4024 52.5903C37.8466 47.1016 37.9054 33.1193 46.2221 26.4892C53.4721 20.7095 61.9547 20.5976 66.1123 20.5518Z" fill="#FEFEFE"/>
<path fill-rule="evenodd" clip-rule="evenodd" d="M42.6783 81.4169L42.8582 81.3611C43.9266 81.5967 43.9393 81.5015 56.5338 81.4982C56.9536 81.4982 58.2005 81.2676 57.4324 82.0827C56.8716 82.6775 42.0429 99.8162 39.237 103.035C38.109 104.329 37.8098 104.91 36.9713 104.913C32.8956 104.913 28.8197 104.913 24.7438 104.913C17.1359 104.913 17.1374 104.923 17 104.851C17.0277 104.787 17.001 104.708 17.0287 104.644C17.0805 104.525 24.3735 98.0166 30.2554 92.6306C31.2427 91.7266 40.1532 83.5673 42.6783 81.4169Z" fill="#EB1E28"/>
<path fill-rule="evenodd" clip-rule="evenodd" d="M59.5949 81.4811C58.9542 81.5131 58.2301 81.6472 58.2794 81.1936C58.2833 81.1594 81.0497 55.6162 81.8897 54.5938C82.3839 53.9923 82.7329 55.011 83.0726 56.1291C85.6819 64.715 82.7643 80.0127 59.5949 81.4811Z" fill="#FEFEFE"/>
<path fill-rule="evenodd" clip-rule="evenodd" d="M113.39 18C113.464 18.0324 113.663 17.8948 113.977 18.2574C114.125 18.4279 113.957 18.4634 100.236 34.0142C99.3202 35.0517 90.7663 44.7088 90.7565 44.7192C90.1258 45.3896 90.0143 45.7895 89.3431 45.7803C88.6402 45.7705 81.5392 45.6727 80.5565 45.6036C79.7801 45.5492 81.2539 44.416 82.7478 43.02C84.2136 41.6502 92.1551 34.2296 101.001 25.8243C108.942 18.2786 108.984 18.1587 109.926 18.1502C110.036 18.1492 113.17 18.1449 113.184 18.1429C113.267 18.131 113.307 18.0118 113.39 18Z" fill="#EA1E28"/>
<path fill-rule="evenodd" clip-rule="evenodd" d="M42.6782 81.4168C39.047 80.3922 31.6449 75.3571 31.6537 74.6875C31.6586 74.306 41.2495 64.1194 41.2617 64.1151C42.0316 63.847 44.9421 67.6178 50.6307 69.5713C51.6425 69.9187 53.9314 69.978 53.8758 70.4058C53.8595 70.5317 43.2547 80.7364 42.8582 81.361L42.6782 81.4168Z" fill="#FEFEFE"/>
</g>
<defs>
<filter id="filter0_d_45_135" x="0" y="0" width="130" height="130" filterUnits="userSpaceOnUse" color-interpolation-filters="sRGB">
<feFlood flood-opacity="0" result="BackgroundImageFix"/>
<feColorMatrix in="SourceAlpha" type="matrix" values="0 0 0 0 0 0 0 0 0 0 0 0 0 0 0 0 0 0 127 0" result="hardAlpha"/>
<feOffset dy="4"/>
<feGaussianBlur stdDeviation="2"/>
<feComposite in2="hardAlpha" operator="out"/>
<feColorMatrix type="matrix" values="0 0 0 0 0 0 0 0 0 0 0 0 0 0 0 0 0 0 0.25 0"/>
<feBlend mode="normal" in2="BackgroundImageFix" result="effect1_dropShadow_45_135"/>
<feBlend mode="normal" in="SourceGraphic" in2="effect1_dropShadow_45_135" result="shape"/>
</filter>
</defs>
</svg>
