<svg width="150" height="40" viewBox="0 0 150 40" fill="none" xmlns="http://www.w3.org/2000/svg">
<path d="M40.008 26.192C39.112 26.192 38.2533 26.0747 37.432 25.84C36.6107 25.5947 35.9493 25.28 35.448 24.896L36.328 22.944C36.808 23.2853 37.3733 23.568 38.024 23.792C38.6853 24.0053 39.352 24.112 40.024 24.112C40.536 24.112 40.9467 24.064 41.256 23.968C41.576 23.8613 41.8107 23.7173 41.96 23.536C42.1093 23.3547 42.184 23.1467 42.184 22.912C42.184 22.6133 42.0667 22.3787 41.832 22.208C41.5973 22.0267 41.288 21.8827 40.904 21.776C40.52 21.6587 40.0933 21.552 39.624 21.456C39.1653 21.3493 38.7013 21.2213 38.232 21.072C37.7733 20.9227 37.352 20.7307 36.968 20.496C36.584 20.2613 36.2693 19.952 36.024 19.568C35.7893 19.184 35.672 18.6933 35.672 18.096C35.672 17.456 35.8427 16.8747 36.184 16.352C36.536 15.8187 37.0587 15.3973 37.752 15.088C38.456 14.768 39.336 14.608 40.392 14.608C41.096 14.608 41.7893 14.6933 42.472 14.864C43.1547 15.024 43.7573 15.2693 44.28 15.6L43.48 17.568C42.9573 17.2693 42.4347 17.0507 41.912 16.912C41.3893 16.7627 40.8773 16.688 40.376 16.688C39.8747 16.688 39.464 16.7467 39.144 16.864C38.824 16.9813 38.5947 17.136 38.456 17.328C38.3173 17.5093 38.248 17.7227 38.248 17.968C38.248 18.256 38.3653 18.4907 38.6 18.672C38.8347 18.8427 39.144 18.9813 39.528 19.088C39.912 19.1947 40.3333 19.3013 40.792 19.408C41.2613 19.5147 41.7253 19.6373 42.184 19.776C42.6533 19.9147 43.08 20.1013 43.464 20.336C43.848 20.5707 44.1573 20.88 44.392 21.264C44.6373 21.648 44.76 22.1333 44.76 22.72C44.76 23.3493 44.584 23.9253 44.232 24.448C43.88 24.9707 43.352 25.392 42.648 25.712C41.9547 26.032 41.0747 26.192 40.008 26.192ZM47.2869 29.232C46.8389 29.232 46.3962 29.1627 45.9589 29.024C45.5215 28.8853 45.1642 28.6933 44.8869 28.448L45.7989 26.672C45.9909 26.8427 46.2095 26.976 46.4549 27.072C46.7109 27.168 46.9615 27.216 47.2069 27.216C47.5589 27.216 47.8362 27.1307 48.0389 26.96C48.2522 26.8 48.4442 26.528 48.6149 26.144L49.0629 25.088L49.2549 24.816L52.3429 17.392H54.7429L50.8549 26.528C50.5775 27.2213 50.2575 27.7653 49.8949 28.16C49.5429 28.5547 49.1482 28.832 48.7109 28.992C48.2842 29.152 47.8095 29.232 47.2869 29.232ZM48.7589 26.336L44.9189 17.392H47.4949L50.4709 24.592L48.7589 26.336ZM60.7601 26V24.32L60.6001 23.952V20.944C60.6001 20.4107 60.4348 19.9947 60.1041 19.696C59.7841 19.3973 59.2881 19.248 58.6161 19.248C58.1575 19.248 57.7041 19.3227 57.2561 19.472C56.8188 19.6107 56.4455 19.8027 56.1361 20.048L55.2401 18.304C55.7095 17.9733 56.2748 17.7173 56.9361 17.536C57.5975 17.3547 58.2695 17.264 58.9521 17.264C60.2641 17.264 61.2828 17.5733 62.0081 18.192C62.7335 18.8107 63.0961 19.776 63.0961 21.088V26H60.7601ZM58.1361 26.128C57.4641 26.128 56.8881 26.016 56.4081 25.792C55.9281 25.5573 55.5601 25.2427 55.3041 24.848C55.0481 24.4533 54.9201 24.0107 54.9201 23.52C54.9201 23.008 55.0428 22.56 55.2881 22.176C55.5441 21.792 55.9441 21.4933 56.4881 21.28C57.0321 21.056 57.7415 20.944 58.6161 20.944H60.9041V22.4H58.8881C58.3015 22.4 57.8961 22.496 57.6721 22.688C57.4588 22.88 57.3521 23.12 57.3521 23.408C57.3521 23.728 57.4748 23.984 57.7201 24.176C57.9761 24.3573 58.3228 24.448 58.7601 24.448C59.1761 24.448 59.5495 24.352 59.8801 24.16C60.2108 23.9573 60.4508 23.664 60.6001 23.28L60.9841 24.432C60.8028 24.9867 60.4721 25.408 59.9921 25.696C59.5121 25.984 58.8935 26.128 58.1361 26.128ZM70.5871 17.264C71.2698 17.264 71.8778 17.4027 72.4111 17.68C72.9551 17.9467 73.3818 18.3627 73.6911 18.928C74.0005 19.4827 74.1551 20.1973 74.1551 21.072V26H71.6591V21.456C71.6591 20.7627 71.5045 20.2507 71.1951 19.92C70.8965 19.5893 70.4698 19.424 69.9151 19.424C69.5205 19.424 69.1631 19.5093 68.8431 19.68C68.5338 19.84 68.2885 20.0907 68.1071 20.432C67.9365 20.7733 67.8511 21.2107 67.8511 21.744V26H65.3551V14.128H67.8511V19.776L67.2911 19.056C67.6005 18.48 68.0431 18.0373 68.6191 17.728C69.1951 17.4187 69.8511 17.264 70.5871 17.264ZM81.1249 26V14.8H86.2129C87.4289 14.8 88.5009 15.0347 89.4289 15.504C90.3569 15.9627 91.0822 16.608 91.6049 17.44C92.1275 18.272 92.3889 19.2587 92.3889 20.4C92.3889 21.5307 92.1275 22.5173 91.6049 23.36C91.0822 24.192 90.3569 24.8427 89.4289 25.312C88.5009 25.7707 87.4289 26 86.2129 26H81.1249ZM83.7169 23.872H86.0849C86.8315 23.872 87.4769 23.7333 88.0209 23.456C88.5755 23.168 89.0022 22.7627 89.3009 22.24C89.6102 21.7173 89.7649 21.104 89.7649 20.4C89.7649 19.6853 89.6102 19.072 89.3009 18.56C89.0022 18.0373 88.5755 17.6373 88.0209 17.36C87.4769 17.072 86.8315 16.928 86.0849 16.928H83.7169V23.872ZM94.1676 26V17.392H96.6636V26H94.1676ZM95.4156 16.192C94.957 16.192 94.5836 16.0587 94.2956 15.792C94.0076 15.5253 93.8636 15.1947 93.8636 14.8C93.8636 14.4053 94.0076 14.0747 94.2956 13.808C94.5836 13.5413 94.957 13.408 95.4156 13.408C95.8743 13.408 96.2476 13.536 96.5356 13.792C96.8236 14.0373 96.9676 14.3573 96.9676 14.752C96.9676 15.168 96.8236 15.5147 96.5356 15.792C96.2583 16.0587 95.885 16.192 95.4156 16.192ZM103.028 29.232C102.217 29.232 101.433 29.1307 100.676 28.928C99.9295 28.736 99.3055 28.4427 98.8041 28.048L99.7961 26.256C100.159 26.5547 100.617 26.7893 101.172 26.96C101.737 27.1413 102.292 27.232 102.836 27.232C103.721 27.232 104.361 27.0347 104.756 26.64C105.161 26.2453 105.364 25.6587 105.364 24.88V23.584L105.524 21.424L105.492 19.248V17.392H107.86V24.56C107.86 26.16 107.444 27.3387 106.612 28.096C105.78 28.8533 104.585 29.232 103.028 29.232ZM102.644 25.584C101.844 25.584 101.119 25.4133 100.468 25.072C99.8281 24.72 99.3108 24.2347 98.9161 23.616C98.5321 22.9867 98.3401 22.256 98.3401 21.424C98.3401 20.5813 98.5321 19.8507 98.9161 19.232C99.3108 18.6027 99.8281 18.1173 100.468 17.776C101.119 17.4347 101.844 17.264 102.644 17.264C103.369 17.264 104.009 17.4133 104.564 17.712C105.119 18 105.551 18.4533 105.86 19.072C106.169 19.68 106.324 20.464 106.324 21.424C106.324 22.3733 106.169 23.1573 105.86 23.776C105.551 24.384 105.119 24.8373 104.564 25.136C104.009 25.4347 103.369 25.584 102.644 25.584ZM103.14 23.536C103.577 23.536 103.967 23.4507 104.308 23.28C104.649 23.0987 104.916 22.848 105.108 22.528C105.3 22.208 105.396 21.84 105.396 21.424C105.396 20.9973 105.3 20.6293 105.108 20.32C104.916 20 104.649 19.7547 104.308 19.584C103.967 19.4027 103.577 19.312 103.14 19.312C102.703 19.312 102.313 19.4027 101.972 19.584C101.631 19.7547 101.359 20 101.156 20.32C100.964 20.6293 100.868 20.9973 100.868 21.424C100.868 21.84 100.964 22.208 101.156 22.528C101.359 22.848 101.631 23.0987 101.972 23.28C102.313 23.4507 102.703 23.536 103.14 23.536ZM110.183 26V17.392H112.679V26H110.183ZM111.431 16.192C110.973 16.192 110.599 16.0587 110.311 15.792C110.023 15.5253 109.879 15.1947 109.879 14.8C109.879 14.4053 110.023 14.0747 110.311 13.808C110.599 13.5413 110.973 13.408 111.431 13.408C111.89 13.408 112.263 13.536 112.551 13.792C112.839 14.0373 112.983 14.3573 112.983 14.752C112.983 15.168 112.839 15.5147 112.551 15.792C112.274 16.0587 111.901 16.192 111.431 16.192ZM118.516 26.128C117.502 26.128 116.713 25.872 116.148 25.36C115.582 24.8373 115.3 24.064 115.3 23.04V15.488H117.796V23.008C117.796 23.3707 117.892 23.6533 118.084 23.856C118.276 24.048 118.537 24.144 118.868 24.144C119.262 24.144 119.598 24.0373 119.876 23.824L120.548 25.584C120.292 25.7653 119.982 25.904 119.62 26C119.268 26.0853 118.9 26.128 118.516 26.128ZM113.972 19.504V17.584H119.94V19.504H113.972ZM127.229 26V24.32L127.069 23.952V20.944C127.069 20.4107 126.904 19.9947 126.573 19.696C126.253 19.3973 125.757 19.248 125.085 19.248C124.626 19.248 124.173 19.3227 123.725 19.472C123.288 19.6107 122.914 19.8027 122.605 20.048L121.709 18.304C122.178 17.9733 122.744 17.7173 123.405 17.536C124.066 17.3547 124.738 17.264 125.421 17.264C126.733 17.264 127.752 17.5733 128.477 18.192C129.202 18.8107 129.565 19.776 129.565 21.088V26H127.229ZM124.605 26.128C123.933 26.128 123.357 26.016 122.877 25.792C122.397 25.5573 122.029 25.2427 121.773 24.848C121.517 24.4533 121.389 24.0107 121.389 23.52C121.389 23.008 121.512 22.56 121.757 22.176C122.013 21.792 122.413 21.4933 122.957 21.28C123.501 21.056 124.21 20.944 125.085 20.944H127.373V22.4H125.357C124.77 22.4 124.365 22.496 124.141 22.688C123.928 22.88 123.821 23.12 123.821 23.408C123.821 23.728 123.944 23.984 124.189 24.176C124.445 24.3573 124.792 24.448 125.229 24.448C125.645 24.448 126.018 24.352 126.349 24.16C126.68 23.9573 126.92 23.664 127.069 23.28L127.453 24.432C127.272 24.9867 126.941 25.408 126.461 25.696C125.981 25.984 125.362 26.128 124.605 26.128ZM131.824 26V14.128H134.32V26H131.824ZM137.58 20.384C137.154 20.384 136.786 20.24 136.476 19.952C136.178 19.6533 136.028 19.2747 136.028 18.816C136.028 18.3573 136.178 17.9893 136.476 17.712C136.786 17.424 137.154 17.28 137.58 17.28C138.018 17.28 138.386 17.424 138.684 17.712C138.983 17.9893 139.132 18.3573 139.132 18.816C139.132 19.2747 138.983 19.6533 138.684 19.952C138.386 20.24 138.018 20.384 137.58 20.384ZM136.204 28.464L137.26 24.624L137.612 26.064C137.154 26.064 136.775 25.9307 136.476 25.664C136.188 25.3973 136.044 25.0293 136.044 24.56C136.044 24.0907 136.194 23.7173 136.492 23.44C136.791 23.1627 137.159 23.024 137.596 23.024C138.044 23.024 138.412 23.168 138.7 23.456C138.988 23.7333 139.132 24.1013 139.132 24.56C139.132 24.6987 139.122 24.8373 139.1 24.976C139.079 25.104 139.036 25.264 138.972 25.456C138.919 25.6373 138.828 25.872 138.7 26.16L137.788 28.464H136.204Z" fill="#1E1E1E"/>
<path d="M28.25 21.2499H25.75C25.3958 21.2499 25.0992 21.1299 24.86 20.8899C24.6208 20.6499 24.5008 20.3533 24.5 19.9999C24.4992 19.6466 24.6192 19.3499 24.86 19.1099C25.1008 18.8699 25.3975 18.7499 25.75 18.7499H28.25C28.6042 18.7499 28.9012 18.8699 29.1412 19.1099C29.3812 19.3499 29.5008 19.6466 29.5 19.9999C29.4992 20.3533 29.3792 20.6503 29.14 20.8912C28.9008 21.132 28.6042 21.2516 28.25 21.2499ZM22.75 25.9999C22.9583 25.7083 23.2292 25.5416 23.5625 25.4999C23.8958 25.4583 24.2083 25.5416 24.5 25.7499L26.5 27.2499C26.7917 27.4583 26.9583 27.7291 27 28.0624C27.0417 28.3958 26.9583 28.7083 26.75 28.9999C26.5417 29.2916 26.2708 29.4583 25.9375 29.4999C25.6042 29.5416 25.2917 29.4583 25 29.2499L23 27.7499C22.7083 27.5416 22.5417 27.2708 22.5 26.9374C22.4583 26.6041 22.5417 26.2916 22.75 25.9999ZM26.5 12.7499L24.5 14.2499C24.2083 14.4583 23.8958 14.5416 23.5625 14.4999C23.2292 14.4583 22.9583 14.2916 22.75 13.9999C22.5417 13.7083 22.4583 13.3958 22.5 13.0624C22.5417 12.7291 22.7083 12.4583 23 12.2499L25 10.7499C25.2917 10.5416 25.6042 10.4583 25.9375 10.4999C26.2708 10.5416 26.5417 10.7083 26.75 10.9999C26.9583 11.2916 27.0417 11.6041 27 11.9374C26.9583 12.2708 26.7917 12.5416 26.5 12.7499ZM8.25 23.7499H7C6.3125 23.7499 5.72417 23.5053 5.235 23.0162C4.74583 22.527 4.50083 21.9383 4.5 21.2499V18.7499C4.5 18.0624 4.745 17.4741 5.235 16.9849C5.725 16.4958 6.31333 16.2508 7 16.2499H12L16.3438 13.6249C16.7604 13.3749 17.1825 13.3749 17.61 13.6249C18.0375 13.8749 18.2508 14.2395 18.25 14.7187V25.2812C18.25 25.7603 18.0363 26.1249 17.6088 26.3749C17.1813 26.6249 16.7596 26.6249 16.3438 26.3749L12 23.7499H10.75V27.4999C10.75 27.8541 10.63 28.1512 10.39 28.3912C10.15 28.6312 9.85333 28.7508 9.5 28.7499C9.14667 28.7491 8.85 28.6291 8.61 28.3899C8.37 28.1508 8.25 27.8541 8.25 27.4999V23.7499ZM19.5 24.1874V15.8124C20.0625 16.3124 20.5158 16.922 20.86 17.6412C21.2042 18.3603 21.3758 19.1466 21.375 19.9999C21.3742 20.8533 21.2021 21.6399 20.8587 22.3599C20.5154 23.0799 20.0625 23.6891 19.5 24.1874Z" fill="#4660FF"/>
</svg>
